<?xml version="1.0" encoding="UTF-8" standalone="no"?>
<!-- Created with Inkscape (http://www.inkscape.org/) -->

<svg
   width="210mm"
   height="297mm"
   viewBox="0 0 210 297"
   version="1.1"
   id="svg5"
   inkscape:export-filename="background_V2.png"
   inkscape:export-xdpi="96"
   inkscape:export-ydpi="96"
   inkscape:version="1.2.2 (732a01da63, 2022-12-09)"
   sodipodi:docname="Rainmeter_BG_V2.svg"
   xmlns:inkscape="http://www.inkscape.org/namespaces/inkscape"
   xmlns:sodipodi="http://sodipodi.sourceforge.net/DTD/sodipodi-0.dtd"
   xmlns="http://www.w3.org/2000/svg"
   xmlns:svg="http://www.w3.org/2000/svg">
  <sodipodi:namedview
     id="namedview7"
     pagecolor="#505050"
     bordercolor="#eeeeee"
     borderopacity="1"
     inkscape:showpageshadow="0"
     inkscape:pageopacity="0"
     inkscape:pagecheckerboard="0"
     inkscape:deskcolor="#505050"
     inkscape:document-units="mm"
     showgrid="false"
     inkscape:zoom="2.5247521"
     inkscape:cx="345.57848"
     inkscape:cy="323.9922"
     inkscape:window-width="2560"
     inkscape:window-height="1417"
     inkscape:window-x="1912"
     inkscape:window-y="-8"
     inkscape:window-maximized="1"
     inkscape:current-layer="layer1"
     showguides="true">
    <inkscape:grid
       type="xygrid"
       id="grid4222" />
  </sodipodi:namedview>
  <defs
     id="defs2">
    <rect
       x="112.09021"
       y="76.839226"
       width="234.47847"
       height="55.054909"
       id="rect3929" />
    <rect
       x="77.235304"
       y="130.30982"
       width="131.49806"
       height="26.933337"
       id="rect3737" />
    <rect
       x="112.09021"
       y="76.839226"
       width="208.73335"
       height="63.768635"
       id="rect3929-0" />
    <rect
       x="112.09021"
       y="76.839226"
       width="208.73335"
       height="63.768635"
       id="rect3929-5" />
    <rect
       x="112.09021"
       y="76.839226"
       width="208.73335"
       height="63.768635"
       id="rect3929-8" />
    <rect
       x="112.09021"
       y="76.839226"
       width="208.73335"
       height="63.768635"
       id="rect3929-4" />
    <rect
       x="112.09021"
       y="76.839226"
       width="208.73335"
       height="63.768635"
       id="rect3929-03" />
    <rect
       x="112.09021"
       y="76.839226"
       width="208.73335"
       height="63.768635"
       id="rect3929-06" />
    <rect
       x="112.09021"
       y="76.839226"
       width="208.73335"
       height="63.768635"
       id="rect3929-7" />
    <rect
       x="112.09021"
       y="76.839226"
       width="242.34172"
       height="46.124239"
       id="rect3929-76" />
  </defs>
  <g
     inkscape:label="Layer 1"
     inkscape:groupmode="layer"
     id="layer1">
    <path
       id="rect234-8-5"
       style="fill:#000000;fill-opacity:0.25;stroke:#00fff0;stroke-width:0.058;stroke-dasharray:none;stroke-opacity:1"
       inkscape:label="footer"
       d="m 130.95113,107.08402 c 0,0.071 -0.003,0.14182 -0.008,0.21187 -0.005,0.0701 -0.0124,0.13971 -0.0222,0.20878 -0.01,0.0691 -0.0221,0.13768 -0.0367,0.20567 -0.0146,0.068 -0.0314,0.13523 -0.0506,0.20205 -0.0192,0.0668 -0.0409,0.13286 -0.0646,0.19844 -0.0237,0.0656 -0.0499,0.13057 -0.078,0.19482 -0.0281,0.0643 -0.058,0.12785 -0.0904,0.19069 -0.0324,0.0628 -0.0668,0.12521 -0.10335,0.18655 -0.0365,0.0613 -0.0752,0.12163 -0.11576,0.18138 -0.0406,0.0597 -0.0832,0.11865 -0.12764,0.17674 -0.0445,0.0581 -0.0912,0.11523 -0.13952,0.17156 -0.0483,0.0563 -0.0984,0.11191 -0.15038,0.1664 -0.052,0.0545 -0.10572,0.10814 -0.16123,0.16071 -0.0555,0.0526 -0.11263,0.10395 -0.17157,0.15452 -0.0589,0.0506 -0.11964,0.10035 -0.1819,0.14882 -0.0623,0.0485 -0.12627,0.0958 -0.19172,0.14211 -0.0654,0.0463 -0.1325,0.0914 -0.20102,0.1354 -0.0685,0.044 -0.13833,0.087 -0.20981,0.12867 -0.0715,0.0417 -0.14427,0.0822 -0.21859,0.12144 -0.0743,0.0393 -0.15034,0.0775 -0.22737,0.11421 -0.077,0.0368 -0.15499,0.0723 -0.23462,0.10645 -0.0796,0.0341 -0.16077,0.0667 -0.24287,0.0982 -0.0821,0.0315 -0.16514,0.0617 -0.2496,0.0904 -0.0845,0.0287 -0.17014,0.0558 -0.25683,0.0816 -0.0867,0.0259 -0.17474,0.0505 -0.26355,0.0734 -0.0888,0.0229 -0.17842,0.0442 -0.26924,0.0641 -0.0908,0.0199 -0.18274,0.0385 -0.27543,0.0553 -0.0927,0.0168 -0.18615,0.0319 -0.28061,0.0455 -0.0944,0.0136 -0.18967,0.0253 -0.28577,0.0357 -0.0961,0.0103 -0.19332,0.0194 -0.29093,0.0264 -0.0976,0.007 -0.19606,0.012 -0.29508,0.0155 -0.099,0.004 -0.19839,0.005 -0.29869,0.005 H 83.797885 c -0.100296,0 -0.200191,-0.002 -0.299206,-0.005 -0.09901,-0.004 -0.197459,-0.008 -0.295073,-0.0155 -0.09761,-0.007 -0.194328,-0.016 -0.290421,-0.0264 -0.09609,-0.0103 -0.191318,-0.022 -0.285771,-0.0357 -0.09445,-0.0136 -0.187909,-0.0287 -0.280603,-0.0455 -0.09269,-0.0168 -0.184621,-0.0354 -0.275435,-0.0553 -0.09081,-0.0199 -0.180936,-0.0412 -0.269751,-0.0641 -0.08882,-0.0229 -0.176336,-0.0475 -0.263033,-0.0734 -0.0867,-0.0259 -0.172373,-0.0529 -0.256832,-0.0816 -0.08446,-0.0287 -0.167495,-0.059 -0.249597,-0.0904 -0.0821,-0.0315 -0.163254,-0.064 -0.24288,-0.0982 -0.07963,-0.0341 -0.158098,-0.0697 -0.235127,-0.10645 -0.07703,-0.0367 -0.152547,-0.0749 -0.22686,-0.11421 -0.07431,-0.0393 -0.147113,-0.0797 -0.218591,-0.12144 -0.07148,-0.0417 -0.141801,-0.0846 -0.210323,-0.12867 -0.06852,-0.044 -0.135573,-0.0891 -0.201022,-0.1354 -0.06545,-0.0463 -0.128948,-0.0936 -0.191202,-0.14211 -0.06225,-0.0485 -0.122961,-0.0983 -0.181901,-0.14882 -0.05894,-0.0506 -0.116575,-0.10195 -0.172083,-0.15452 -0.05551,-0.0526 -0.109275,-0.10622 -0.16123,-0.16071 -0.05196,-0.0545 -0.102096,-0.11007 -0.150379,-0.1664 -0.04828,-0.0563 -0.09452,-0.11348 -0.139009,-0.17156 -0.04449,-0.0581 -0.08706,-0.11699 -0.127641,-0.17674 -0.04058,-0.0598 -0.07921,-0.12005 -0.115755,-0.18138 -0.03655,-0.0613 -0.07095,-0.12372 -0.103353,-0.18655 -0.0324,-0.0628 -0.06282,-0.12644 -0.09095,-0.19069 -0.02813,-0.0643 -0.05377,-0.12924 -0.07751,-0.19482 -0.02374,-0.0656 -0.04536,-0.13161 -0.0646,-0.19844 -0.01923,-0.0668 -0.03604,-0.13407 -0.05064,-0.20205 -0.0146,-0.068 -0.02684,-0.13661 -0.03669,-0.20567 -0.0099,-0.0691 -0.01775,-0.13872 -0.02274,-0.20878 -0.005,-0.0701 -0.0072,-0.14091 -0.0072,-0.21187 v 4.03593 c 0,2.27086 2.583958,4.09846 5.793445,4.09846 h 41.359758 c 3.2095,0 5.79344,-1.8276 5.79344,-4.09846 z" />
    <g
       id="g4445"
       transform="translate(0,0.13622788)">
      <path
         id="rect234-8"
         style="fill:#000000;fill-opacity:0.25;stroke:#00fff0;stroke-width:0.158;stroke-dasharray:none;stroke-opacity:1"
         d="M 130.95434,59.791499 H 78.007711 v 9.70122 c 0,2.27086 2.58395,4.09846 5.79344,4.09846 h 41.359739 c 3.2095,0 5.79345,-1.8276 5.79345,-4.09846 z"
         inkscape:label="header" />
      <path
         id="rect234"
         style="fill:#000000;fill-opacity:0.5;stroke:#000000;stroke-width:0.158;stroke-dasharray:none"
         d="M 130.95494,59.791473 H 78.008502 v 51.205217 c 0,2.27086 2.584096,4.09885 5.7936,4.09885 h 41.359748 c 3.2095,0 5.79309,-1.82799 5.79309,-4.09885 z"
         inkscape:label="body" />
    </g>
  </g>
  <g
     inkscape:groupmode="layer"
     id="layer2"
     inkscape:label="Layer 2"
     style="display:inline">
    <rect
       style="fill:#ffffff;fill-opacity:0;stroke:#ffffff;stroke-width:0.125229;stroke-dasharray:none;stroke-opacity:1"
       id="rect3627"
       width="16.808105"
       height="16.808104"
       x="83.155487"
       y="76.890991"
       ry="2.34655" />
    <text
       xml:space="preserve"
       transform="matrix(0.26458333,0,0,0.26458333,74.14671,62.361668)"
       id="text3927-0"
       style="font-style:normal;font-variant:normal;font-weight:normal;font-stretch:normal;font-size:16px;font-family:'CaskaydiaCove NF';-inkscape-font-specification:'CaskaydiaCove NF, Normal';font-variant-ligatures:normal;font-variant-caps:normal;font-variant-numeric:normal;font-variant-east-asian:normal;white-space:pre;shape-inside:url(#rect3929-0);display:inline;fill:#ffffff;fill-opacity:0.857143;stroke:none;stroke-width:0.597165;stroke-dasharray:none;stroke-opacity:1"><tspan
         x="112.08984"
         y="91.612953"
         id="tspan5778">Light rain</tspan></text>
    <text
       xml:space="preserve"
       transform="matrix(0.26458333,0,0,0.26458333,55.943845,76.305411)"
       id="text3927-8"
       style="font-style:normal;font-variant:normal;font-weight:normal;font-stretch:normal;font-size:18.6667px;font-family:'CaskaydiaCove NF';-inkscape-font-specification:'CaskaydiaCove NF, Normal';font-variant-ligatures:normal;font-variant-caps:normal;font-variant-numeric:normal;font-variant-east-asian:normal;white-space:pre;shape-inside:url(#rect3929-5);display:inline;fill:#ffffff;fill-opacity:0.857143;stroke:none;stroke-width:0.597165;stroke-dasharray:none;stroke-opacity:1"><tspan
         x="112.08984"
         y="94.075169"
         id="tspan5780">13°C - 10.7°C</tspan></text>
    <text
       xml:space="preserve"
       transform="matrix(0.26458333,0,0,0.26458333,77.7045,55.943702)"
       id="text3927-4"
       style="font-style:normal;font-variant:normal;font-weight:normal;font-stretch:normal;font-size:16px;font-family:'CaskaydiaCove NF';-inkscape-font-specification:'CaskaydiaCove NF, Normal';font-variant-ligatures:normal;font-variant-caps:normal;font-variant-numeric:normal;font-variant-east-asian:normal;white-space:pre;shape-inside:url(#rect3929-8);display:inline;fill:#ffffff;fill-opacity:0.857143;stroke:none;stroke-width:0.597165;stroke-dasharray:none;stroke-opacity:1"><tspan
         x="112.08984"
         y="91.612953"
         id="tspan5782">UV: 7.0</tspan></text>
    <text
       xml:space="preserve"
       transform="matrix(0.26458333,0,0,0.26458333,58.825458,84.289148)"
       id="text3927-03"
       style="font-style:normal;font-variant:normal;font-weight:normal;font-stretch:normal;font-size:16px;font-family:'CaskaydiaCove NF';-inkscape-font-specification:'CaskaydiaCove NF, Normal';font-variant-ligatures:normal;font-variant-caps:normal;font-variant-numeric:normal;font-variant-east-asian:normal;white-space:pre;shape-inside:url(#rect3929-03);display:inline;fill:#ffffff;fill-opacity:0.857143;stroke:none;stroke-width:0.597165;stroke-dasharray:none;stroke-opacity:1"><tspan
         x="112.08984"
         y="91.612953"
         id="tspan5784">15.1 km/h ENE</tspan></text>
    <text
       xml:space="preserve"
       transform="matrix(0.26458333,0,0,0.26458333,77.612415,68.698088)"
       id="text3927-7"
       style="font-style:normal;font-variant:normal;font-weight:normal;font-stretch:normal;font-size:16px;font-family:'CaskaydiaCove NF';-inkscape-font-specification:'CaskaydiaCove NF, Normal';font-variant-ligatures:normal;font-variant-caps:normal;font-variant-numeric:normal;font-variant-east-asian:normal;white-space:pre;shape-inside:url(#rect3929-7);display:inline;fill:#ffffff;fill-opacity:0.857143;stroke:none;stroke-width:0.597165;stroke-dasharray:none;stroke-opacity:1"><tspan
         x="112.08984"
         y="91.612953"
         id="tspan5786">24.4 mm</tspan></text>
    <text
       xml:space="preserve"
       transform="matrix(0.26458333,0,0,0.26458333,51.536261,43.503697)"
       id="text3927-5"
       style="font-style:normal;font-variant:normal;font-weight:normal;font-stretch:normal;font-size:16px;font-family:'CaskaydiaCove NF';-inkscape-font-specification:'CaskaydiaCove NF, Normal';font-variant-ligatures:normal;font-variant-caps:normal;font-variant-numeric:normal;font-variant-east-asian:normal;white-space:pre;shape-inside:url(#rect3929-76);display:inline;fill:#ffffff;fill-opacity:0.857143;stroke:none;stroke-width:0.597165;stroke-dasharray:none;stroke-opacity:1"><tspan
         x="112.08984"
         y="91.612953"
         id="tspan5788">Court-Saint-Etienne</tspan></text>
    <text
       xml:space="preserve"
       style="font-style:normal;font-variant:normal;font-weight:normal;font-stretch:normal;font-size:2.11667px;font-family:'CaskaydiaCove NF';-inkscape-font-specification:'CaskaydiaCove NF, Normal';font-variant-ligatures:normal;font-variant-caps:normal;font-variant-numeric:normal;font-variant-east-asian:normal;fill:#9e9e9e;fill-opacity:1;stroke:none;stroke-width:0.0580001;stroke-dasharray:none;stroke-opacity:1"
       x="86.816299"
       y="113.97315"
       id="text4452"><tspan
         sodipodi:role="line"
         id="tspan4450"
         style="font-style:normal;font-variant:normal;font-weight:normal;font-stretch:normal;font-size:2.11667px;font-family:'CaskaydiaCove NF';-inkscape-font-specification:'CaskaydiaCove NF, Normal';font-variant-ligatures:normal;font-variant-caps:normal;font-variant-numeric:normal;font-variant-east-asian:normal;fill:#9e9e9e;fill-opacity:1;stroke:none;stroke-width:0.058"
         x="86.816299"
         y="113.97315">LastUpdate :2023-04-22 15:30 </tspan></text>
  </g>
</svg>
